<svg xmlns="http://www.w3.org/2000/svg" xmlns:xlink="http://www.w3.org/1999/xlink" width="500" zoomAndPan="magnify" viewBox="0 0 375 374.999991" height="500" preserveAspectRatio="xMidYMid meet" version="1.0"><defs><clipPath id="a2cd501740"><path d="M 11.03125 93.542969 L 247 93.542969 L 247 165.03125 L 11.03125 165.03125 Z M 11.03125 93.542969 " clip-rule="nonzero"/></clipPath><clipPath id="d207e6fa23"><path d="M 72.554688 93.542969 L 246.859375 93.542969 L 185.335938 165.03125 L 11.03125 165.03125 Z M 72.554688 93.542969 " clip-rule="nonzero"/></clipPath><clipPath id="2e0349db45"><path d="M 293 156.875 L 303.359375 156.875 L 303.359375 167.375 L 293 167.375 Z M 293 156.875 " clip-rule="nonzero"/></clipPath><clipPath id="08221d0cf8"><path d="M 221.777344 146.476562 L 261.902344 146.476562 L 261.902344 156.875 L 221.777344 156.875 Z M 221.777344 146.476562 " clip-rule="nonzero"/></clipPath><clipPath id="e2f5c4ca70"><path d="M 224.027344 146.476562 L 259.621094 146.476562 C 260.21875 146.476562 260.792969 146.714844 261.214844 147.136719 C 261.636719 147.558594 261.871094 148.128906 261.871094 148.726562 L 261.871094 154.625 C 261.871094 155.21875 261.636719 155.792969 261.214844 156.214844 C 260.792969 156.636719 260.21875 156.875 259.621094 156.875 L 224.027344 156.875 C 223.429688 156.875 222.855469 156.636719 222.433594 156.214844 C 222.011719 155.792969 221.777344 155.21875 221.777344 154.625 L 221.777344 148.726562 C 221.777344 148.128906 222.011719 147.558594 222.433594 147.136719 C 222.855469 146.714844 223.429688 146.476562 224.027344 146.476562 Z M 224.027344 146.476562 " clip-rule="nonzero"/></clipPath><clipPath id="8809763a72"><path d="M 194.339844 177.144531 L 292.222656 177.144531 L 292.222656 275.027344 L 194.339844 275.027344 Z M 194.339844 177.144531 " clip-rule="nonzero"/></clipPath><clipPath id="30dc2a9519"><path d="M 202.589844 177.144531 L 283.972656 177.144531 C 288.53125 177.144531 292.222656 180.835938 292.222656 185.394531 L 292.222656 266.777344 C 292.222656 271.332031 288.53125 275.027344 283.972656 275.027344 L 202.589844 275.027344 C 198.035156 275.027344 194.339844 271.332031 194.339844 266.777344 L 194.339844 185.394531 C 194.339844 180.835938 198.035156 177.144531 202.589844 177.144531 Z M 202.589844 177.144531 " clip-rule="nonzero"/></clipPath><clipPath id="ba37d1d36d"><path d="M 194.339844 257.125 L 292.222656 257.125 L 292.222656 281.585938 L 194.339844 281.585938 Z M 194.339844 257.125 " clip-rule="nonzero"/></clipPath><clipPath id="a8d3cf5fe7"><path d="M 194 208.785156 L 319 208.785156 L 319 274.785156 L 194 274.785156 Z M 194 208.785156 " clip-rule="nonzero"/></clipPath><clipPath id="947f5d578d"><path d="M 298.519531 220.539062 L 363.976562 220.539062 L 363.976562 257.125 L 298.519531 257.125 Z M 298.519531 220.539062 " clip-rule="nonzero"/></clipPath><clipPath id="6865669bfa"><path d="M 301.519531 220.539062 L 360.96875 220.539062 C 362.625 220.539062 363.96875 221.878906 363.96875 223.539062 L 363.96875 254.125 C 363.96875 255.78125 362.625 257.125 360.96875 257.125 L 301.519531 257.125 C 299.863281 257.125 298.519531 255.78125 298.519531 254.125 L 298.519531 223.539062 C 298.519531 221.878906 299.863281 220.539062 301.519531 220.539062 Z M 301.519531 220.539062 " clip-rule="nonzero"/></clipPath><clipPath id="04c11faf8c"><path d="M 304.4375 227.5625 L 313.296875 227.5625 L 313.296875 250.125 L 304.4375 250.125 Z M 304.4375 227.5625 " clip-rule="nonzero"/></clipPath><clipPath id="28122e4ad5"><path d="M 305.9375 227.5625 L 311.796875 227.5625 C 312.628906 227.5625 313.296875 228.234375 313.296875 229.0625 L 313.296875 248.601562 C 313.296875 249.429688 312.628906 250.101562 311.796875 250.101562 L 305.9375 250.101562 C 305.109375 250.101562 304.4375 249.429688 304.4375 248.601562 L 304.4375 229.0625 C 304.4375 228.234375 305.109375 227.5625 305.9375 227.5625 Z M 305.9375 227.5625 " clip-rule="nonzero"/></clipPath><clipPath id="d35267db46"><path d="M 319.066406 227.5625 L 327.925781 227.5625 L 327.925781 250.125 L 319.066406 250.125 Z M 319.066406 227.5625 " clip-rule="nonzero"/></clipPath><clipPath id="e09cbcc4c8"><path d="M 320.566406 227.5625 L 326.425781 227.5625 C 327.253906 227.5625 327.925781 228.234375 327.925781 229.0625 L 327.925781 248.601562 C 327.925781 249.429688 327.253906 250.101562 326.425781 250.101562 L 320.566406 250.101562 C 319.734375 250.101562 319.066406 249.429688 319.066406 248.601562 L 319.066406 229.0625 C 319.066406 228.234375 319.734375 227.5625 320.566406 227.5625 Z M 320.566406 227.5625 " clip-rule="nonzero"/></clipPath><clipPath id="eee77f4d0c"><path d="M 334.574219 227.5625 L 343.433594 227.5625 L 343.433594 250.125 L 334.574219 250.125 Z M 334.574219 227.5625 " clip-rule="nonzero"/></clipPath><clipPath id="4b6bd6844b"><path d="M 336.074219 227.5625 L 341.933594 227.5625 C 342.761719 227.5625 343.433594 228.234375 343.433594 229.0625 L 343.433594 248.601562 C 343.433594 249.429688 342.761719 250.101562 341.933594 250.101562 L 336.074219 250.101562 C 335.242188 250.101562 334.574219 249.429688 334.574219 248.601562 L 334.574219 229.0625 C 334.574219 228.234375 335.242188 227.5625 336.074219 227.5625 Z M 336.074219 227.5625 " clip-rule="nonzero"/></clipPath><clipPath id="71067b265e"><path d="M 349.101562 227.5625 L 357.960938 227.5625 L 357.960938 250.125 L 349.101562 250.125 Z M 349.101562 227.5625 " clip-rule="nonzero"/></clipPath><clipPath id="d733684f2a"><path d="M 350.601562 227.5625 L 356.460938 227.5625 C 357.289062 227.5625 357.960938 228.234375 357.960938 229.0625 L 357.960938 248.601562 C 357.960938 249.429688 357.289062 250.101562 356.460938 250.101562 L 350.601562 250.101562 C 349.773438 250.101562 349.101562 249.429688 349.101562 248.601562 L 349.101562 229.0625 C 349.101562 228.234375 349.773438 227.5625 350.601562 227.5625 Z M 350.601562 227.5625 " clip-rule="nonzero"/></clipPath><clipPath id="3cff4e3c34"><path d="M 21.5625 174.320312 L 182.035156 174.320312 L 182.035156 257.125 L 21.5625 257.125 Z M 21.5625 174.320312 " clip-rule="nonzero"/></clipPath><clipPath id="2f6a376dfd"><path d="M 182.035156 257.125 L 182.035156 174.320312 L 21.78125 174.320312 C 21.78125 220.042969 93.542969 257.125 182.035156 257.125 Z M 182.035156 257.125 " clip-rule="nonzero"/></clipPath><clipPath id="7225421af0"><path d="M 138.355469 198.246094 L 147.734375 198.246094 L 147.734375 219.609375 L 138.355469 219.609375 Z M 138.355469 198.246094 " clip-rule="nonzero"/></clipPath><clipPath id="2ce25968cd"><path d="M 139.855469 198.246094 L 146.234375 198.246094 C 147.0625 198.246094 147.734375 198.917969 147.734375 199.746094 L 147.734375 218.078125 C 147.734375 218.90625 147.0625 219.578125 146.234375 219.578125 L 139.855469 219.578125 C 139.027344 219.578125 138.355469 218.90625 138.355469 218.078125 L 138.355469 199.746094 C 138.355469 198.917969 139.027344 198.246094 139.855469 198.246094 Z M 139.855469 198.246094 " clip-rule="nonzero"/></clipPath><clipPath id="3633e584d0"><path d="M 112.066406 198.246094 L 121.445312 198.246094 L 121.445312 219.609375 L 112.066406 219.609375 Z M 112.066406 198.246094 " clip-rule="nonzero"/></clipPath><clipPath id="6c0634fb29"><path d="M 113.566406 198.246094 L 119.945312 198.246094 C 120.773438 198.246094 121.445312 198.917969 121.445312 199.746094 L 121.445312 218.078125 C 121.445312 218.90625 120.773438 219.578125 119.945312 219.578125 L 113.566406 219.578125 C 112.738281 219.578125 112.066406 218.90625 112.066406 218.078125 L 112.066406 199.746094 C 112.066406 198.917969 112.738281 198.246094 113.566406 198.246094 Z M 113.566406 198.246094 " clip-rule="nonzero"/></clipPath><clipPath id="7941d8a45f"><path d="M 85.777344 197.996094 L 95.15625 197.996094 L 95.15625 219.359375 L 85.777344 219.359375 Z M 85.777344 197.996094 " clip-rule="nonzero"/></clipPath><clipPath id="bc61b92632"><path d="M 87.277344 197.996094 L 93.65625 197.996094 C 94.484375 197.996094 95.15625 198.667969 95.15625 199.496094 L 95.15625 217.828125 C 95.15625 218.65625 94.484375 219.328125 93.65625 219.328125 L 87.277344 219.328125 C 86.449219 219.328125 85.777344 218.65625 85.777344 217.828125 L 85.777344 199.496094 C 85.777344 198.667969 86.449219 197.996094 87.277344 197.996094 Z M 87.277344 197.996094 " clip-rule="nonzero"/></clipPath></defs><rect x="-37.5" width="450" fill="#ffffff" y="-37.499999" height="449.999989" fill-opacity="1"/><rect x="-37.5" width="450" fill="#ffffff" y="-37.499999" height="449.999989" fill-opacity="1"/><g clip-path="url(#a2cd501740)"><g clip-path="url(#d207e6fa23)"><path fill="#004aad" d="M 11.03125 93.542969 L 246.71875 93.542969 L 246.71875 165.03125 L 11.03125 165.03125 Z M 11.03125 93.542969 " fill-opacity="1" fill-rule="nonzero"/></g></g><path stroke-linecap="butt" transform="matrix(0.45022, 0.599835, -0.599835, 0.45022, 246.964001, 93.417095)" fill="none" stroke-linejoin="miter" d="M 0.000690644 2.499801 L 117.103831 2.498954 " stroke="#004aad" stroke-width="5" stroke-opacity="1" stroke-miterlimit="4"/><g clip-path="url(#2e0349db45)"><path fill="#004aad" d="M 293.023438 156.875 L 303.34375 167.351562 L 293.023438 167.351562 Z M 293.023438 156.875 " fill-opacity="1" fill-rule="nonzero"/></g><g clip-path="url(#08221d0cf8)"><g clip-path="url(#e2f5c4ca70)"><path fill="#004aad" d="M 221.777344 146.476562 L 261.863281 146.476562 L 261.863281 156.875 L 221.777344 156.875 Z M 221.777344 146.476562 " fill-opacity="1" fill-rule="nonzero"/></g></g><g clip-path="url(#8809763a72)"><g clip-path="url(#30dc2a9519)"><path fill="#545454" d="M 194.339844 177.144531 L 292.222656 177.144531 L 292.222656 275.027344 L 194.339844 275.027344 Z M 194.339844 177.144531 " fill-opacity="1" fill-rule="nonzero"/></g></g><g clip-path="url(#ba37d1d36d)"><path fill="#ffffff" d="M 194.339844 257.125 L 292.1875 257.125 L 292.1875 281.585938 L 194.339844 281.585938 Z M 194.339844 257.125 " fill-opacity="1" fill-rule="nonzero"/></g><g clip-path="url(#a8d3cf5fe7)"><path fill="#ffffff" d="M 294.097656 209.015625 C 299.183594 209.039062 313.121094 208.792969 314.65625 208.886719 C 331.722656 226.949219 293.5 235.050781 279.089844 236.972656 C 269.640625 238.574219 245.65625 240.328125 247.234375 252.941406 C 250.859375 272.199219 278.300781 269.953125 296.800781 275.015625 L 196.523438 275.015625 C 192.015625 263.613281 193.421875 248.925781 204.53125 237.972656 C 220.308594 222.441406 268.390625 225.511719 288.453125 218.824219 C 300.363281 214.855469 292.605469 210.226562 292.605469 209.210938 C 292.605469 209.070312 293.164062 209.011719 294.097656 209.015625 Z M 294.097656 209.015625 " fill-opacity="1" fill-rule="nonzero"/></g><path stroke-linecap="butt" transform="matrix(0.45022, 0.599835, -0.599835, 0.45022, 245.634113, 94.415274)" fill="none" stroke-linejoin="miter" d="M -0.00324866 2.500417 L 117.104057 2.502697 " stroke="#004aad" stroke-width="5" stroke-opacity="1" stroke-miterlimit="4"/><g clip-path="url(#947f5d578d)"><g clip-path="url(#6865669bfa)"><path fill="#545454" d="M 298.519531 220.539062 L 363.976562 220.539062 L 363.976562 257.125 L 298.519531 257.125 Z M 298.519531 220.539062 " fill-opacity="1" fill-rule="nonzero"/></g></g><g clip-path="url(#04c11faf8c)"><g clip-path="url(#28122e4ad5)"><path fill="#ffffff" d="M 304.4375 227.5625 L 313.296875 227.5625 L 313.296875 250.089844 L 304.4375 250.089844 Z M 304.4375 227.5625 " fill-opacity="1" fill-rule="nonzero"/></g></g><g clip-path="url(#d35267db46)"><g clip-path="url(#e09cbcc4c8)"><path fill="#ffffff" d="M 319.066406 227.5625 L 327.925781 227.5625 L 327.925781 250.089844 L 319.066406 250.089844 Z M 319.066406 227.5625 " fill-opacity="1" fill-rule="nonzero"/></g></g><g clip-path="url(#eee77f4d0c)"><g clip-path="url(#4b6bd6844b)"><path fill="#ffffff" d="M 334.574219 227.5625 L 343.433594 227.5625 L 343.433594 250.089844 L 334.574219 250.089844 Z M 334.574219 227.5625 " fill-opacity="1" fill-rule="nonzero"/></g></g><g clip-path="url(#71067b265e)"><g clip-path="url(#d733684f2a)"><path fill="#ffffff" d="M 349.101562 227.5625 L 357.960938 227.5625 L 357.960938 250.089844 L 349.101562 250.089844 Z M 349.101562 227.5625 " fill-opacity="1" fill-rule="nonzero"/></g></g><g clip-path="url(#3cff4e3c34)"><g clip-path="url(#2f6a376dfd)"><path fill="#004aad" d="M 182.035156 257.125 L 21.882812 257.125 L 21.882812 174.320312 L 182.035156 174.320312 Z M 182.035156 257.125 " fill-opacity="1" fill-rule="nonzero"/></g></g><g clip-path="url(#7225421af0)"><g clip-path="url(#2ce25968cd)"><path fill="#ffffff" d="M 138.355469 198.246094 L 147.734375 198.246094 L 147.734375 219.570312 L 138.355469 219.570312 Z M 138.355469 198.246094 " fill-opacity="1" fill-rule="nonzero"/></g></g><g clip-path="url(#3633e584d0)"><g clip-path="url(#6c0634fb29)"><path fill="#ffffff" d="M 112.066406 198.246094 L 121.445312 198.246094 L 121.445312 219.570312 L 112.066406 219.570312 Z M 112.066406 198.246094 " fill-opacity="1" fill-rule="nonzero"/></g></g><g clip-path="url(#7941d8a45f)"><g clip-path="url(#bc61b92632)"><path fill="#ffffff" d="M 85.777344 197.996094 L 95.15625 197.996094 L 95.15625 219.324219 L 85.777344 219.324219 Z M 85.777344 197.996094 " fill-opacity="1" fill-rule="nonzero"/></g></g></svg>