<svg xmlns="http://www.w3.org/2000/svg" xmlns:xlink="http://www.w3.org/1999/xlink" width="500" zoomAndPan="magnify" viewBox="0 0 375 374.999991" height="500" preserveAspectRatio="xMidYMid meet" version="1.0"><defs><clipPath id="8dbc5f3ea2"><path d="M 284 192 L 319.054688 192 L 319.054688 255 L 284 255 Z M 284 192 " clip-rule="nonzero"/></clipPath><clipPath id="43a56e20d0"><path d="M 55.804688 192 L 91 192 L 91 255 L 55.804688 255 Z M 55.804688 192 " clip-rule="nonzero"/></clipPath></defs><path fill="#2563eb" d="M 156.253906 83.523438 L 161.382812 80.726562 L 184.539062 123.175781 L 179.40625 125.976562 Z M 156.253906 83.523438 " fill-opacity="1" fill-rule="nonzero"/><path fill="#2563eb" d="M 165.933594 70.136719 C 165.933594 71.035156 165.847656 71.921875 165.671875 72.800781 C 165.496094 73.679688 165.238281 74.535156 164.894531 75.359375 C 164.550781 76.1875 164.132812 76.976562 163.632812 77.71875 C 163.136719 78.464844 162.570312 79.15625 161.9375 79.789062 C 161.304688 80.421875 160.613281 80.988281 159.867188 81.484375 C 159.125 81.984375 158.335938 82.40625 157.507812 82.746094 C 156.679688 83.089844 155.828125 83.347656 154.949219 83.523438 C 154.070312 83.699219 153.183594 83.785156 152.285156 83.785156 C 151.390625 83.785156 150.503906 83.699219 149.625 83.523438 C 148.746094 83.347656 147.890625 83.089844 147.0625 82.746094 C 146.234375 82.40625 145.449219 81.984375 144.703125 81.484375 C 143.957031 80.988281 143.269531 80.421875 142.636719 79.789062 C 142 79.15625 141.4375 78.464844 140.9375 77.71875 C 140.441406 76.976562 140.019531 76.1875 139.675781 75.359375 C 139.335938 74.535156 139.074219 73.679688 138.898438 72.800781 C 138.726562 71.921875 138.636719 71.035156 138.636719 70.136719 C 138.636719 69.242188 138.726562 68.355469 138.898438 67.476562 C 139.074219 66.597656 139.335938 65.742188 139.675781 64.914062 C 140.019531 64.085938 140.441406 63.300781 140.9375 62.554688 C 141.4375 61.8125 142 61.121094 142.636719 60.488281 C 143.269531 59.855469 143.957031 59.289062 144.703125 58.789062 C 145.449219 58.292969 146.234375 57.871094 147.0625 57.53125 C 147.890625 57.1875 148.746094 56.925781 149.625 56.753906 C 150.503906 56.578125 151.390625 56.492188 152.285156 56.492188 C 153.183594 56.492188 154.070312 56.578125 154.949219 56.753906 C 155.828125 56.925781 156.679688 57.1875 157.507812 57.53125 C 158.335938 57.871094 159.125 58.292969 159.867188 58.789062 C 160.613281 59.289062 161.304688 59.855469 161.9375 60.488281 C 162.570312 61.121094 163.136719 61.8125 163.632812 62.554688 C 164.132812 63.300781 164.550781 64.085938 164.894531 64.914062 C 165.238281 65.742188 165.496094 66.597656 165.671875 67.476562 C 165.847656 68.355469 165.933594 69.242188 165.933594 70.136719 Z M 165.933594 70.136719 " fill-opacity="1" fill-rule="nonzero"/><path fill="#2563eb" d="M 152.3125 86.878906 C 146.378906 86.878906 140.621094 83.722656 137.585938 78.15625 C 135.445312 74.230469 134.960938 69.703125 136.222656 65.414062 C 137.484375 61.121094 140.34375 57.582031 144.269531 55.4375 C 152.375 51.019531 162.5625 54.015625 166.984375 62.121094 C 171.40625 70.226562 168.410156 80.417969 160.304688 84.835938 C 157.765625 86.222656 155.019531 86.878906 152.3125 86.878906 Z M 152.269531 59.585938 C 150.5625 59.585938 148.832031 60 147.234375 60.875 C 144.757812 62.222656 142.957031 64.457031 142.164062 67.160156 C 141.367188 69.863281 141.671875 72.714844 143.023438 75.191406 C 145.808594 80.300781 152.230469 82.1875 157.339844 79.402344 C 162.445312 76.617188 164.335938 70.191406 161.550781 65.085938 C 159.636719 61.578125 156.007812 59.585938 152.269531 59.585938 Z M 152.269531 59.585938 " fill-opacity="1" fill-rule="nonzero"/><path fill="#2563eb" d="M 190.425781 123.167969 L 213.585938 80.71875 L 218.714844 83.515625 L 195.558594 125.964844 Z M 190.425781 123.167969 " fill-opacity="1" fill-rule="nonzero"/><path fill="#2563eb" d="M 236.332031 70.136719 C 236.332031 71.035156 236.246094 71.921875 236.070312 72.800781 C 235.894531 73.679688 235.636719 74.535156 235.292969 75.363281 C 234.949219 76.1875 234.53125 76.976562 234.03125 77.722656 C 233.535156 78.464844 232.96875 79.15625 232.335938 79.789062 C 231.703125 80.421875 231.011719 80.988281 230.265625 81.488281 C 229.523438 81.984375 228.734375 82.40625 227.90625 82.746094 C 227.078125 83.089844 226.226562 83.347656 225.347656 83.523438 C 224.46875 83.699219 223.582031 83.785156 222.683594 83.785156 C 221.789062 83.785156 220.902344 83.699219 220.023438 83.523438 C 219.144531 83.347656 218.289062 83.089844 217.460938 82.746094 C 216.632812 82.40625 215.847656 81.984375 215.101562 81.488281 C 214.355469 80.988281 213.667969 80.421875 213.035156 79.789062 C 212.398438 79.15625 211.835938 78.464844 211.335938 77.722656 C 210.839844 76.976562 210.417969 76.1875 210.074219 75.363281 C 209.730469 74.535156 209.472656 73.679688 209.296875 72.800781 C 209.125 71.921875 209.035156 71.035156 209.035156 70.136719 C 209.035156 69.242188 209.125 68.355469 209.296875 67.476562 C 209.472656 66.597656 209.730469 65.742188 210.074219 64.914062 C 210.417969 64.085938 210.839844 63.300781 211.335938 62.554688 C 211.835938 61.8125 212.398438 61.121094 213.035156 60.488281 C 213.667969 59.855469 214.355469 59.289062 215.101562 58.789062 C 215.847656 58.292969 216.632812 57.871094 217.460938 57.53125 C 218.289062 57.1875 219.144531 56.929688 220.023438 56.753906 C 220.902344 56.578125 221.789062 56.492188 222.683594 56.492188 C 223.582031 56.492188 224.46875 56.578125 225.347656 56.753906 C 226.226562 56.929688 227.078125 57.1875 227.90625 57.53125 C 228.734375 57.871094 229.523438 58.292969 230.265625 58.789062 C 231.011719 59.289062 231.703125 59.855469 232.335938 60.488281 C 232.96875 61.121094 233.535156 61.8125 234.03125 62.554688 C 234.53125 63.300781 234.949219 64.085938 235.292969 64.914062 C 235.636719 65.742188 235.894531 66.597656 236.070312 67.476562 C 236.246094 68.355469 236.332031 69.242188 236.332031 70.136719 Z M 236.332031 70.136719 " fill-opacity="1" fill-rule="nonzero"/><path fill="#2563eb" d="M 222.660156 86.890625 C 219.898438 86.890625 217.160156 86.199219 214.667969 84.835938 C 206.5625 80.417969 203.566406 70.226562 207.984375 62.121094 L 210.703125 63.601562 L 207.984375 62.121094 C 210.128906 58.195312 213.667969 55.335938 217.960938 54.074219 C 222.25 52.8125 226.777344 53.296875 230.703125 55.4375 C 234.628906 57.582031 237.484375 61.121094 238.746094 65.414062 C 240.007812 69.703125 239.527344 74.230469 237.382812 78.15625 C 235.242188 82.082031 231.699219 84.9375 227.410156 86.203125 C 225.84375 86.660156 224.246094 86.890625 222.660156 86.890625 Z M 222.699219 59.582031 C 221.699219 59.582031 220.691406 59.726562 219.707031 60.015625 C 217.003906 60.808594 214.769531 62.613281 213.421875 65.085938 C 210.632812 70.195312 212.523438 76.617188 217.632812 79.402344 C 220.105469 80.753906 222.957031 81.058594 225.660156 80.261719 C 228.367188 79.46875 230.597656 77.667969 231.949219 75.191406 C 233.296875 72.71875 233.601562 69.867188 232.808594 67.160156 C 232.011719 64.457031 230.210938 62.222656 227.738281 60.875 C 226.164062 60.015625 224.441406 59.582031 222.699219 59.582031 Z M 222.699219 59.582031 " fill-opacity="1" fill-rule="nonzero"/><path fill="#2563eb" d="M 316.042969 223.410156 C 316.042969 231.019531 312.957031 237.898438 307.972656 242.886719 C 304.0625 246.796875 298.988281 249.539062 293.308594 250.535156 C 295.472656 245.167969 296.675781 239.652344 296.675781 234.027344 C 296.675781 220.480469 293.898438 207.578125 288.875 195.867188 C 303.90625 196.066406 316.042969 208.316406 316.042969 223.410156 Z M 316.042969 223.410156 " fill-opacity="1" fill-rule="nonzero"/><g clip-path="url(#8dbc5f3ea2)"><path fill="#2563eb" d="M 288.355469 254.542969 L 290.4375 249.375 C 292.523438 244.203125 293.582031 239.039062 293.582031 234.027344 C 293.582031 221.199219 291.039062 208.769531 286.027344 197.085938 L 284.152344 192.707031 L 288.914062 192.773438 C 297.011719 192.878906 304.605469 196.113281 310.296875 201.878906 C 316 207.648438 319.140625 215.292969 319.140625 223.40625 C 319.140625 231.589844 315.949219 239.285156 310.160156 245.074219 C 305.683594 249.554688 300.039062 252.496094 293.84375 253.582031 Z M 293.65625 199.511719 C 297.71875 210.535156 299.773438 222.121094 299.773438 234.027344 C 299.773438 237.9375 299.226562 241.90625 298.140625 245.890625 C 300.96875 244.675781 303.554688 242.925781 305.785156 240.695312 C 310.402344 236.078125 312.949219 229.9375 312.949219 223.410156 C 312.949219 211.757812 304.648438 201.902344 293.65625 199.511719 Z M 293.65625 199.511719 " fill-opacity="1" fill-rule="nonzero"/></g><path fill="#2563eb" d="M 78.292969 234.027344 C 78.292969 239.652344 79.496094 245.167969 81.660156 250.535156 C 75.980469 249.539062 70.90625 246.796875 66.996094 242.886719 C 62.011719 237.898438 58.925781 231.019531 58.925781 223.410156 C 58.925781 208.316406 71.0625 196.066406 86.097656 195.867188 C 81.074219 207.578125 78.292969 220.480469 78.292969 234.027344 Z M 78.292969 234.027344 " fill-opacity="1" fill-rule="nonzero"/><g clip-path="url(#43a56e20d0)"><path fill="#2563eb" d="M 86.613281 254.542969 L 81.125 253.582031 C 74.929688 252.496094 69.289062 249.554688 64.808594 245.074219 C 59.019531 239.285156 55.832031 231.59375 55.832031 223.410156 C 55.832031 215.296875 58.972656 207.648438 64.671875 201.878906 C 70.367188 196.113281 77.960938 192.878906 86.054688 192.773438 L 90.820312 192.707031 L 88.941406 197.085938 C 83.929688 208.773438 81.390625 221.199219 81.390625 234.027344 C 81.390625 239.039062 82.445312 244.203125 84.53125 249.375 Z M 81.3125 199.511719 C 70.320312 201.902344 62.023438 211.757812 62.023438 223.410156 C 62.023438 229.9375 64.566406 236.078125 69.1875 240.699219 C 71.414062 242.925781 74 244.675781 76.832031 245.890625 C 75.746094 241.910156 75.199219 237.9375 75.199219 234.027344 C 75.199219 222.121094 77.253906 210.535156 81.3125 199.511719 Z M 81.3125 199.511719 " fill-opacity="1" fill-rule="nonzero"/></g><path fill="#f3f4f6" d="M 288.875 195.867188 C 279.75 174.570312 263.207031 157.210938 242.503906 147.015625 C 242.757812 147.84375 242.90625 148.6875 242.90625 149.542969 C 242.90625 161.265625 218.09375 170.773438 187.484375 170.773438 C 156.875 170.773438 132.0625 161.265625 132.0625 149.542969 C 132.0625 148.683594 132.210938 147.835938 132.472656 147.003906 C 122.875 151.730469 114.171875 157.988281 106.691406 165.472656 C 98.023438 174.136719 90.996094 184.4375 86.097656 195.867188 C 81.074219 207.578125 78.292969 220.480469 78.292969 234.027344 C 78.292969 239.652344 79.496094 245.167969 81.660156 250.535156 C 89.730469 270.597656 111.125 288.558594 132.582031 302.390625 C 166.042969 323.957031 208.925781 323.957031 242.390625 302.390625 C 255.988281 293.621094 269.558594 283.203125 279.730469 271.640625 C 285.609375 264.949219 290.359375 257.882812 293.308594 250.535156 C 295.472656 245.167969 296.675781 239.652344 296.675781 234.027344 C 296.675781 220.480469 293.898438 207.578125 288.875 195.867188 Z M 288.875 195.867188 " fill-opacity="1" fill-rule="nonzero"/><path fill="#2563eb" d="M 187.484375 321.660156 C 167.390625 321.660156 147.824219 315.898438 130.902344 304.992188 C 103.425781 287.277344 85.890625 269.34375 78.789062 251.6875 C 76.40625 245.777344 75.199219 239.835938 75.199219 234.027344 C 75.199219 220.355469 77.90625 207.105469 83.25 194.648438 C 88.285156 182.902344 95.433594 172.351562 104.5 163.285156 C 112.289062 155.496094 121.238281 149.085938 131.101562 144.226562 L 137.5625 141.046875 L 135.425781 147.921875 C 135.246094 148.503906 135.160156 149.03125 135.160156 149.542969 C 135.160156 158.121094 156.648438 167.675781 187.484375 167.675781 C 218.320312 167.675781 239.8125 158.121094 239.8125 149.542969 C 239.8125 149.035156 239.722656 148.507812 239.546875 147.929688 L 237.417969 141.058594 L 243.871094 144.238281 C 265.324219 154.804688 282.320312 172.710938 291.71875 194.648438 C 297.0625 207.105469 299.773438 220.355469 299.773438 234.027344 C 299.773438 239.835938 298.5625 245.777344 296.179688 251.691406 C 293.277344 258.921875 288.527344 266.324219 282.058594 273.683594 C 272.863281 284.128906 260.082031 294.664062 244.066406 304.992188 C 227.144531 315.898438 207.582031 321.660156 187.484375 321.660156 Z M 129.277344 152.183594 C 121.808594 156.382812 114.964844 161.574219 108.878906 167.660156 C 100.371094 176.167969 93.664062 186.070312 88.941406 197.085938 C 83.929688 208.773438 81.390625 221.199219 81.390625 234.027344 C 81.390625 239.039062 82.445312 244.203125 84.53125 249.375 C 91.144531 265.820312 107.875 282.78125 134.257812 299.789062 C 150.421875 310.207031 168.957031 315.414062 187.484375 315.417969 C 206.015625 315.417969 224.542969 310.210938 240.710938 299.789062 C 256.25 289.769531 268.59375 279.613281 277.410156 269.59375 C 283.410156 262.765625 287.796875 255.960938 290.4375 249.378906 C 292.523438 244.203125 293.582031 239.039062 293.582031 234.027344 C 293.582031 221.199219 291.039062 208.773438 286.027344 197.085938 C 277.886719 178.082031 263.671875 162.304688 245.691406 152.191406 C 244.273438 158.171875 238.039062 163.515625 227.78125 167.445312 C 216.96875 171.585938 202.660156 173.867188 187.484375 173.867188 C 172.3125 173.867188 158 171.585938 147.1875 167.445312 C 136.929688 163.515625 130.695312 158.167969 129.277344 152.183594 Z M 129.277344 152.183594 " fill-opacity="1" fill-rule="nonzero"/><path fill="#2563eb" d="M 229.328125 210.683594 C 216.8125 216.613281 202.34375 219.746094 187.484375 219.746094 C 172.628906 219.746094 158.160156 216.613281 145.640625 210.683594 C 141.050781 208.507812 136.777344 206.324219 132.839844 204.148438 C 121.621094 197.949219 107.59375 204.121094 104.519531 216.566406 C 103.136719 222.164062 102.402344 228.011719 102.402344 234.03125 C 102.402344 246.691406 118.566406 264.671875 145.644531 282.125 C 158.160156 290.191406 172.628906 294.453125 187.484375 294.453125 C 202.34375 294.453125 216.8125 290.191406 229.328125 282.125 C 256.402344 264.671875 272.570312 246.691406 272.570312 234.03125 C 272.570312 228.011719 271.835938 222.164062 270.449219 216.566406 C 267.375 204.121094 253.351562 197.949219 242.132812 204.148438 C 238.195312 206.324219 233.917969 208.511719 229.328125 210.683594 Z M 229.328125 210.683594 " fill-opacity="1" fill-rule="nonzero"/><path fill="#2563eb" d="M 187.484375 297.550781 C 172.03125 297.550781 156.980469 293.117188 143.964844 284.726562 C 115.582031 266.429688 99.304688 247.953125 99.304688 234.03125 C 99.304688 227.875 100.046875 221.75 101.515625 215.824219 C 103.21875 208.933594 107.921875 203.351562 114.421875 200.511719 C 120.894531 197.6875 128.15625 198.023438 134.335938 201.4375 C 138.238281 203.59375 142.484375 205.761719 146.96875 207.886719 C 159.074219 213.621094 173.082031 216.652344 187.484375 216.652344 C 201.886719 216.652344 215.898438 213.621094 228.003906 207.886719 C 232.480469 205.765625 236.730469 203.59375 240.632812 201.4375 C 246.816406 198.023438 254.074219 197.683594 260.550781 200.511719 C 267.050781 203.351562 271.753906 208.933594 273.457031 215.824219 C 274.921875 221.75 275.664062 227.875 275.664062 234.03125 C 275.664062 247.953125 259.386719 266.429688 231.003906 284.726562 C 217.988281 293.117188 202.9375 297.550781 187.484375 297.550781 Z M 123.453125 204.808594 C 121.234375 204.808594 119.011719 205.265625 116.898438 206.1875 C 112.179688 208.25 108.761719 212.300781 107.523438 217.308594 C 106.179688 222.75 105.496094 228.378906 105.496094 234.03125 C 105.496094 245.460938 121.523438 262.894531 147.320312 279.523438 C 159.335938 287.265625 173.222656 291.359375 187.484375 291.359375 C 201.746094 291.359375 215.636719 287.265625 227.652344 279.523438 C 253.449219 262.894531 269.472656 245.460938 269.472656 234.03125 C 269.472656 228.375 268.792969 222.75 267.445312 217.308594 C 266.210938 212.304688 262.792969 208.25 258.070312 206.1875 C 253.375 204.136719 248.113281 204.378906 243.628906 206.859375 C 239.613281 209.078125 235.246094 211.304688 230.652344 213.480469 C 217.726562 219.605469 202.796875 222.84375 187.484375 222.84375 C 172.171875 222.84375 157.246094 219.605469 144.316406 213.480469 C 139.71875 211.304688 135.355469 209.074219 131.34375 206.859375 C 128.875 205.492188 126.167969 204.808594 123.453125 204.808594 Z M 123.453125 204.808594 " fill-opacity="1" fill-rule="nonzero"/><path fill="#2563eb" d="M 242.503906 147.019531 C 242.757812 147.847656 242.90625 148.6875 242.90625 149.542969 C 242.90625 161.265625 218.09375 170.773438 187.484375 170.773438 C 156.875 170.773438 132.0625 161.265625 132.0625 149.542969 C 132.0625 148.6875 132.210938 147.847656 132.46875 147.019531 C 127.921875 149.257812 123.574219 151.832031 119.464844 154.730469 C 128.257812 180.210938 152.246094 197.308594 179.199219 197.308594 L 195.769531 197.308594 C 222.726562 197.308594 246.714844 180.210938 255.507812 154.730469 C 251.398438 151.832031 247.046875 149.257812 242.503906 147.019531 Z M 242.503906 147.019531 " fill-opacity="1" fill-rule="nonzero"/><path fill="#2563eb" d="M 195.769531 200.40625 L 179.203125 200.40625 C 150.9375 200.40625 125.757812 182.453125 116.539062 155.738281 L 115.777344 153.539062 L 117.679688 152.199219 C 121.894531 149.226562 126.410156 146.550781 131.097656 144.242188 L 137.550781 141.0625 L 135.425781 147.933594 C 135.246094 148.507812 135.160156 149.035156 135.160156 149.542969 C 135.160156 158.121094 156.648438 167.675781 187.484375 167.675781 C 218.320312 167.675781 239.8125 158.121094 239.8125 149.542969 C 239.8125 149.035156 239.722656 148.507812 239.546875 147.933594 L 237.417969 141.0625 L 243.871094 144.242188 C 248.558594 146.550781 253.074219 149.226562 257.289062 152.199219 L 259.191406 153.539062 L 258.433594 155.738281 C 249.214844 182.453125 224.03125 200.40625 195.769531 200.40625 Z M 123.199219 155.921875 C 132.148438 178.921875 154.363281 194.214844 179.203125 194.214844 L 195.769531 194.214844 C 220.605469 194.214844 242.820312 178.921875 251.773438 155.921875 C 249.800781 154.609375 247.769531 153.363281 245.691406 152.195312 C 244.269531 158.171875 238.035156 163.515625 227.78125 167.445312 C 216.96875 171.585938 202.65625 173.867188 187.484375 173.867188 C 172.3125 173.867188 158 171.585938 147.1875 167.445312 C 136.933594 163.515625 130.699219 158.175781 129.28125 152.195312 C 127.199219 153.363281 125.167969 154.609375 123.199219 155.921875 Z M 123.199219 155.921875 " fill-opacity="1" fill-rule="nonzero"/><path fill="#f3f4f6" d="M 205.335938 129.445312 C 205.652344 129.9375 205.824219 130.449219 205.824219 130.976562 C 205.824219 134.683594 197.613281 137.6875 187.484375 137.6875 C 177.359375 137.6875 169.148438 134.683594 169.148438 130.976562 C 169.148438 130.449219 169.320312 129.9375 169.636719 129.445312 C 147.789062 132.289062 132.0625 140.210938 132.0625 149.542969 C 132.0625 161.265625 156.875 170.773438 187.484375 170.773438 C 218.09375 170.773438 242.90625 161.265625 242.90625 149.542969 C 242.90625 140.210938 227.183594 132.289062 205.335938 129.445312 Z M 205.335938 129.445312 " fill-opacity="1" fill-rule="nonzero"/><path fill="#2563eb" d="M 187.484375 173.867188 C 172.3125 173.867188 158 171.585938 147.1875 167.445312 C 135.4375 162.945312 128.96875 156.585938 128.96875 149.542969 C 128.96875 145.535156 131.09375 139.644531 141.214844 134.320312 C 148.324219 130.585938 158.011719 127.835938 169.234375 126.375 L 175.820312 125.515625 L 172.324219 130.980469 C 173.242188 132.152344 178.433594 134.59375 187.484375 134.59375 C 196.539062 134.59375 201.730469 132.152344 202.644531 130.980469 L 199.148438 125.515625 L 205.734375 126.375 C 216.957031 127.835938 226.644531 130.585938 233.753906 134.320312 C 243.875 139.644531 246 145.535156 246 149.542969 C 246 156.585938 239.53125 162.945312 227.78125 167.445312 C 216.96875 171.585938 202.65625 173.867188 187.484375 173.867188 Z M 166.425781 133.035156 C 145.882812 136.335938 135.160156 143.671875 135.160156 149.542969 C 135.160156 158.121094 156.648438 167.675781 187.484375 167.675781 C 218.320312 167.675781 239.8125 158.121094 239.8125 149.542969 C 239.8125 143.671875 229.089844 136.335938 208.542969 133.035156 C 206.523438 138.34375 196.691406 140.785156 187.484375 140.785156 C 178.28125 140.785156 168.445312 138.34375 166.425781 133.035156 Z M 202.757812 131.160156 Z M 172.214844 131.160156 Z M 172.214844 131.160156 " fill-opacity="1" fill-rule="nonzero"/><path fill="#2563eb" d="M 205.824219 130.976562 C 205.824219 131.417969 205.707031 131.855469 205.46875 132.289062 C 205.234375 132.71875 204.886719 133.140625 204.425781 133.546875 C 203.964844 133.953125 203.402344 134.339844 202.730469 134.707031 C 202.0625 135.074219 201.304688 135.410156 200.453125 135.722656 C 199.601562 136.035156 198.675781 136.3125 197.671875 136.558594 C 196.671875 136.800781 195.613281 137.007812 194.503906 137.175781 C 193.390625 137.347656 192.242188 137.472656 191.0625 137.558594 C 189.882812 137.644531 188.6875 137.6875 187.484375 137.6875 C 186.28125 137.6875 185.089844 137.644531 183.90625 137.558594 C 182.726562 137.472656 181.578125 137.347656 180.46875 137.175781 C 179.355469 137.007812 178.296875 136.800781 177.296875 136.558594 C 176.296875 136.3125 175.371094 136.035156 174.519531 135.722656 C 173.667969 135.410156 172.90625 135.074219 172.238281 134.707031 C 171.570312 134.339844 171.003906 133.953125 170.542969 133.546875 C 170.082031 133.140625 169.734375 132.71875 169.5 132.289062 C 169.265625 131.855469 169.148438 131.417969 169.148438 130.976562 C 169.148438 130.539062 169.265625 130.101562 169.5 129.667969 C 169.734375 129.238281 170.082031 128.816406 170.542969 128.410156 C 171.003906 128.003906 171.570312 127.617188 172.238281 127.25 C 172.90625 126.882812 173.667969 126.542969 174.519531 126.234375 C 175.371094 125.921875 176.296875 125.644531 177.296875 125.398438 C 178.296875 125.152344 179.355469 124.945312 180.46875 124.777344 C 181.578125 124.609375 182.726562 124.484375 183.90625 124.398438 C 185.089844 124.3125 186.28125 124.269531 187.484375 124.269531 C 188.6875 124.269531 189.882812 124.3125 191.0625 124.398438 C 192.242188 124.484375 193.390625 124.609375 194.503906 124.777344 C 195.613281 124.945312 196.671875 125.152344 197.671875 125.398438 C 198.675781 125.644531 199.601562 125.921875 200.453125 126.234375 C 201.304688 126.542969 202.0625 126.882812 202.730469 127.25 C 203.402344 127.617188 203.964844 128.003906 204.425781 128.410156 C 204.886719 128.816406 205.234375 129.238281 205.46875 129.667969 C 205.707031 130.101562 205.824219 130.539062 205.824219 130.976562 Z M 205.824219 130.976562 " fill-opacity="1" fill-rule="nonzero"/><path fill="#2563eb" d="M 187.484375 140.785156 C 177.164062 140.785156 166.050781 137.714844 166.050781 130.976562 C 166.050781 124.242188 177.164062 121.171875 187.484375 121.171875 C 197.808594 121.171875 208.917969 124.242188 208.917969 130.976562 C 208.917969 137.714844 197.808594 140.785156 187.484375 140.785156 Z M 172.320312 130.976562 C 173.226562 132.144531 178.421875 134.59375 187.484375 134.59375 C 196.550781 134.59375 201.742188 132.144531 202.648438 130.976562 C 201.742188 129.808594 196.550781 127.363281 187.484375 127.363281 C 178.421875 127.363281 173.226562 129.808594 172.320312 130.976562 Z M 172.320312 130.976562 " fill-opacity="1" fill-rule="nonzero"/><path fill="#f3f4f6" d="M 234.253906 241.105469 C 234.253906 241.804688 234.183594 242.496094 234.046875 243.179688 C 233.914062 243.863281 233.710938 244.527344 233.445312 245.171875 C 233.175781 245.816406 232.847656 246.429688 232.460938 247.011719 C 232.074219 247.589844 231.632812 248.128906 231.140625 248.621094 C 230.648438 249.113281 230.109375 249.554688 229.53125 249.941406 C 228.949219 250.328125 228.335938 250.65625 227.691406 250.925781 C 227.046875 251.191406 226.382812 251.394531 225.699219 251.527344 C 225.015625 251.664062 224.324219 251.734375 223.628906 251.734375 C 222.929688 251.734375 222.238281 251.664062 221.554688 251.527344 C 220.871094 251.394531 220.207031 251.191406 219.5625 250.925781 C 218.917969 250.65625 218.304688 250.328125 217.722656 249.941406 C 217.144531 249.554688 216.605469 249.113281 216.113281 248.621094 C 215.621094 248.128906 215.179688 247.589844 214.792969 247.011719 C 214.40625 246.429688 214.078125 245.816406 213.808594 245.171875 C 213.542969 244.527344 213.34375 243.863281 213.207031 243.179688 C 213.070312 242.496094 213 241.804688 213 241.105469 C 213 240.410156 213.070312 239.71875 213.207031 239.035156 C 213.34375 238.351562 213.542969 237.6875 213.808594 237.042969 C 214.078125 236.398438 214.40625 235.785156 214.792969 235.203125 C 215.179688 234.625 215.621094 234.085938 216.113281 233.59375 C 216.605469 233.101562 217.144531 232.660156 217.722656 232.273438 C 218.304688 231.886719 218.917969 231.558594 219.5625 231.289062 C 220.207031 231.023438 220.871094 230.820312 221.554688 230.6875 C 222.238281 230.550781 222.929688 230.480469 223.628906 230.480469 C 224.324219 230.480469 225.015625 230.550781 225.699219 230.6875 C 226.382812 230.820312 227.046875 231.023438 227.691406 231.289062 C 228.335938 231.558594 228.949219 231.886719 229.53125 232.273438 C 230.109375 232.660156 230.648438 233.101562 231.140625 233.59375 C 231.632812 234.085938 232.074219 234.625 232.460938 235.203125 C 232.847656 235.785156 233.175781 236.398438 233.445312 237.042969 C 233.710938 237.6875 233.914062 238.351562 234.046875 239.035156 C 234.183594 239.71875 234.253906 240.410156 234.253906 241.105469 Z M 234.253906 241.105469 " fill-opacity="1" fill-rule="nonzero"/><path fill="#f3f4f6" d="M 161.96875 241.109375 C 161.96875 241.804688 161.898438 242.496094 161.765625 243.179688 C 161.628906 243.863281 161.425781 244.527344 161.160156 245.171875 C 160.894531 245.820312 160.566406 246.429688 160.175781 247.011719 C 159.789062 247.589844 159.351562 248.128906 158.855469 248.621094 C 158.363281 249.113281 157.828125 249.554688 157.246094 249.941406 C 156.667969 250.328125 156.054688 250.65625 155.410156 250.925781 C 154.765625 251.191406 154.101562 251.394531 153.414062 251.527344 C 152.730469 251.664062 152.039062 251.734375 151.34375 251.734375 C 150.644531 251.734375 149.953125 251.664062 149.269531 251.527344 C 148.585938 251.394531 147.921875 251.191406 147.277344 250.925781 C 146.632812 250.65625 146.019531 250.328125 145.441406 249.941406 C 144.859375 249.554688 144.324219 249.113281 143.828125 248.621094 C 143.335938 248.128906 142.894531 247.589844 142.507812 247.011719 C 142.121094 246.429688 141.792969 245.820312 141.527344 245.175781 C 141.257812 244.527344 141.058594 243.863281 140.921875 243.179688 C 140.785156 242.496094 140.71875 241.804688 140.71875 241.109375 C 140.71875 240.410156 140.785156 239.71875 140.921875 239.035156 C 141.058594 238.351562 141.257812 237.6875 141.527344 237.042969 C 141.792969 236.398438 142.121094 235.785156 142.507812 235.203125 C 142.894531 234.625 143.335938 234.085938 143.828125 233.59375 C 144.324219 233.101562 144.859375 232.660156 145.441406 232.273438 C 146.019531 231.886719 146.632812 231.558594 147.277344 231.289062 C 147.921875 231.023438 148.585938 230.824219 149.269531 230.6875 C 149.953125 230.550781 150.644531 230.480469 151.34375 230.480469 C 152.039062 230.480469 152.730469 230.550781 153.414062 230.6875 C 154.101562 230.824219 154.765625 231.023438 155.410156 231.289062 C 156.054688 231.558594 156.667969 231.886719 157.246094 232.273438 C 157.828125 232.660156 158.363281 233.101562 158.855469 233.59375 C 159.351562 234.085938 159.789062 234.625 160.175781 235.203125 C 160.566406 235.785156 160.894531 236.398438 161.160156 237.042969 C 161.425781 237.6875 161.628906 238.351562 161.765625 239.035156 C 161.898438 239.71875 161.96875 240.410156 161.96875 241.109375 Z M 161.96875 241.109375 " fill-opacity="1" fill-rule="nonzero"/><path fill="#f3f4f6" d="M 187.542969 274.289062 C 187.492188 274.289062 187.441406 274.289062 187.390625 274.289062 C 177.070312 274.246094 168.0625 270.011719 163.292969 262.960938 C 162.257812 261.429688 162.65625 259.347656 164.191406 258.3125 C 165.722656 257.277344 167.800781 257.679688 168.835938 259.207031 C 172.3125 264.347656 179.433594 267.5625 187.417969 267.59375 C 195.484375 267.625 202.5 264.484375 206.148438 259.1875 C 207.195312 257.664062 209.28125 257.28125 210.804688 258.328125 C 212.328125 259.375 212.710938 261.460938 211.660156 262.984375 C 206.78125 270.070312 197.773438 274.289062 187.542969 274.289062 Z M 187.542969 274.289062 " fill-opacity="1" fill-rule="nonzero"/></svg>