<svg xmlns="http://www.w3.org/2000/svg" xmlns:xlink="http://www.w3.org/1999/xlink" width="500" zoomAndPan="magnify" viewBox="0 0 375 374.999991" height="500" preserveAspectRatio="xMidYMid meet" version="1.0"><defs><clipPath id="27d3b73700"><path d="M 82.449219 131.570312 L 222.917969 131.570312 L 222.917969 174.125 L 82.449219 174.125 Z M 82.449219 131.570312 " clip-rule="nonzero"/></clipPath><clipPath id="664a9f9039"><path d="M 119.074219 131.570312 L 222.835938 131.570312 L 186.210938 174.125 L 82.449219 174.125 Z M 119.074219 131.570312 " clip-rule="nonzero"/></clipPath><clipPath id="5585d98420"><path d="M 250.464844 169.269531 L 256.464844 169.269531 L 256.464844 175.269531 L 250.464844 175.269531 Z M 250.464844 169.269531 " clip-rule="nonzero"/></clipPath><clipPath id="5f37eb9a50"><path d="M 207.902344 163.082031 L 231.792969 163.082031 L 231.792969 169.269531 L 207.902344 169.269531 Z M 207.902344 163.082031 " clip-rule="nonzero"/></clipPath><clipPath id="6b09df5433"><path d="M 210.152344 163.082031 L 229.523438 163.082031 C 230.765625 163.082031 231.773438 164.089844 231.773438 165.332031 L 231.773438 167.019531 C 231.773438 168.265625 230.765625 169.269531 229.523438 169.269531 L 210.152344 169.269531 C 208.910156 169.269531 207.902344 168.265625 207.902344 167.019531 L 207.902344 165.332031 C 207.902344 164.089844 208.910156 163.082031 210.152344 163.082031 Z M 210.152344 163.082031 " clip-rule="nonzero"/></clipPath><clipPath id="cb12cfc5fb"><path d="M 191.570312 181.335938 L 249.839844 181.335938 L 249.839844 239.605469 L 191.570312 239.605469 Z M 191.570312 181.335938 " clip-rule="nonzero"/></clipPath><clipPath id="7e4b09ba60"><path d="M 199.820312 181.335938 L 241.589844 181.335938 C 246.148438 181.335938 249.839844 185.03125 249.839844 189.585938 L 249.839844 231.355469 C 249.839844 235.914062 246.148438 239.605469 241.589844 239.605469 L 199.820312 239.605469 C 195.265625 239.605469 191.570312 235.914062 191.570312 231.355469 L 191.570312 189.585938 C 191.570312 185.03125 195.265625 181.335938 199.820312 181.335938 Z M 199.820312 181.335938 " clip-rule="nonzero"/></clipPath><clipPath id="6dc74e4a6d"><path d="M 191.570312 228.949219 L 249.839844 228.949219 L 249.839844 243.511719 L 191.570312 243.511719 Z M 191.570312 228.949219 " clip-rule="nonzero"/></clipPath><clipPath id="dcf16c41bc"><path d="M 191 200.175781 L 266 200.175781 L 266 239.925781 L 191 239.925781 Z M 191 200.175781 " clip-rule="nonzero"/></clipPath><clipPath id="091a1491cf"><path d="M 253.585938 207.167969 L 292.554688 207.167969 L 292.554688 228.949219 L 253.585938 228.949219 Z M 253.585938 207.167969 " clip-rule="nonzero"/></clipPath><clipPath id="34d01c80da"><path d="M 256.585938 207.167969 L 289.550781 207.167969 C 291.207031 207.167969 292.550781 208.511719 292.550781 210.167969 L 292.550781 225.949219 C 292.550781 227.605469 291.207031 228.949219 289.550781 228.949219 L 256.585938 228.949219 C 254.929688 228.949219 253.585938 227.605469 253.585938 225.949219 L 253.585938 210.167969 C 253.585938 208.511719 254.929688 207.167969 256.585938 207.167969 Z M 256.585938 207.167969 " clip-rule="nonzero"/></clipPath><clipPath id="58630fa030"><path d="M 257.113281 211.351562 L 262.386719 211.351562 L 262.386719 224.78125 L 257.113281 224.78125 Z M 257.113281 211.351562 " clip-rule="nonzero"/></clipPath><clipPath id="9b7f78edd7"><path d="M 258.613281 211.351562 L 260.886719 211.351562 C 261.285156 211.351562 261.664062 211.507812 261.945312 211.789062 C 262.226562 212.070312 262.386719 212.453125 262.386719 212.851562 L 262.386719 223.269531 C 262.386719 223.664062 262.226562 224.046875 261.945312 224.328125 C 261.664062 224.609375 261.285156 224.769531 260.886719 224.769531 L 258.613281 224.769531 C 258.214844 224.769531 257.832031 224.609375 257.550781 224.328125 C 257.269531 224.046875 257.113281 223.664062 257.113281 223.269531 L 257.113281 212.851562 C 257.113281 212.453125 257.269531 212.070312 257.550781 211.789062 C 257.832031 211.507812 258.214844 211.351562 258.613281 211.351562 Z M 258.613281 211.351562 " clip-rule="nonzero"/></clipPath><clipPath id="13d3cf941b"><path d="M 265.820312 211.351562 L 271.09375 211.351562 L 271.09375 224.78125 L 265.820312 224.78125 Z M 265.820312 211.351562 " clip-rule="nonzero"/></clipPath><clipPath id="010586db78"><path d="M 267.320312 211.351562 L 269.59375 211.351562 C 269.992188 211.351562 270.371094 211.507812 270.652344 211.789062 C 270.933594 212.070312 271.09375 212.453125 271.09375 212.851562 L 271.09375 223.269531 C 271.09375 223.664062 270.933594 224.046875 270.652344 224.328125 C 270.371094 224.609375 269.992188 224.769531 269.59375 224.769531 L 267.320312 224.769531 C 266.921875 224.769531 266.539062 224.609375 266.257812 224.328125 C 265.976562 224.046875 265.820312 223.664062 265.820312 223.269531 L 265.820312 212.851562 C 265.820312 212.453125 265.976562 212.070312 266.257812 211.789062 C 266.539062 211.507812 266.921875 211.351562 267.320312 211.351562 Z M 267.320312 211.351562 " clip-rule="nonzero"/></clipPath><clipPath id="894a319de2"><path d="M 275.050781 211.351562 L 280.324219 211.351562 L 280.324219 224.78125 L 275.050781 224.78125 Z M 275.050781 211.351562 " clip-rule="nonzero"/></clipPath><clipPath id="ddce435c38"><path d="M 276.550781 211.351562 L 278.824219 211.351562 C 279.222656 211.351562 279.605469 211.507812 279.886719 211.789062 C 280.167969 212.070312 280.324219 212.453125 280.324219 212.851562 L 280.324219 223.269531 C 280.324219 223.664062 280.167969 224.046875 279.886719 224.328125 C 279.605469 224.609375 279.222656 224.769531 278.824219 224.769531 L 276.550781 224.769531 C 276.152344 224.769531 275.769531 224.609375 275.488281 224.328125 C 275.207031 224.046875 275.050781 223.664062 275.050781 223.269531 L 275.050781 212.851562 C 275.050781 212.453125 275.207031 212.070312 275.488281 211.789062 C 275.769531 211.507812 276.152344 211.351562 276.550781 211.351562 Z M 276.550781 211.351562 " clip-rule="nonzero"/></clipPath><clipPath id="449d5515a9"><path d="M 283.699219 211.351562 L 288.972656 211.351562 L 288.972656 224.78125 L 283.699219 224.78125 Z M 283.699219 211.351562 " clip-rule="nonzero"/></clipPath><clipPath id="9634289373"><path d="M 285.199219 211.351562 L 287.472656 211.351562 C 287.871094 211.351562 288.253906 211.507812 288.535156 211.789062 C 288.816406 212.070312 288.972656 212.453125 288.972656 212.851562 L 288.972656 223.269531 C 288.972656 223.664062 288.816406 224.046875 288.535156 224.328125 C 288.253906 224.609375 287.871094 224.769531 287.472656 224.769531 L 285.199219 224.769531 C 284.800781 224.769531 284.421875 224.609375 284.136719 224.328125 C 283.855469 224.046875 283.699219 223.664062 283.699219 223.269531 L 283.699219 212.851562 C 283.699219 212.453125 283.855469 212.070312 284.136719 211.789062 C 284.421875 211.507812 284.800781 211.351562 285.199219 211.351562 Z M 285.199219 211.351562 " clip-rule="nonzero"/></clipPath><clipPath id="3a6c4ab821"><path d="M 88.710938 179.652344 L 184.238281 179.652344 L 184.238281 228.945312 L 88.710938 228.945312 Z M 88.710938 179.652344 " clip-rule="nonzero"/></clipPath><clipPath id="58ca105873"><path d="M 184.238281 228.945312 L 184.238281 179.652344 L 88.84375 179.652344 C 88.84375 206.871094 131.5625 228.945312 184.238281 228.945312 Z M 184.238281 228.945312 " clip-rule="nonzero"/></clipPath><clipPath id="9326ac02f8"><path d="M 158.246094 193.898438 L 163.828125 193.898438 L 163.828125 206.617188 L 158.246094 206.617188 Z M 158.246094 193.898438 " clip-rule="nonzero"/></clipPath><clipPath id="46f2a1b8b2"><path d="M 159.746094 193.898438 L 162.328125 193.898438 C 162.726562 193.898438 163.109375 194.058594 163.390625 194.339844 C 163.671875 194.621094 163.828125 195 163.828125 195.398438 L 163.828125 205.097656 C 163.828125 205.496094 163.671875 205.875 163.390625 206.160156 C 163.109375 206.441406 162.726562 206.597656 162.328125 206.597656 L 159.746094 206.597656 C 159.347656 206.597656 158.964844 206.441406 158.683594 206.160156 C 158.402344 205.875 158.246094 205.496094 158.246094 205.097656 L 158.246094 195.398438 C 158.246094 195 158.402344 194.621094 158.683594 194.339844 C 158.964844 194.058594 159.347656 193.898438 159.746094 193.898438 Z M 159.746094 193.898438 " clip-rule="nonzero"/></clipPath><clipPath id="e0117700ad"><path d="M 142.59375 193.898438 L 148.179688 193.898438 L 148.179688 206.617188 L 142.59375 206.617188 Z M 142.59375 193.898438 " clip-rule="nonzero"/></clipPath><clipPath id="8080fee27d"><path d="M 144.09375 193.898438 L 146.679688 193.898438 C 147.078125 193.898438 147.457031 194.058594 147.738281 194.339844 C 148.019531 194.621094 148.179688 195 148.179688 195.398438 L 148.179688 205.097656 C 148.179688 205.496094 148.019531 205.875 147.738281 206.160156 C 147.457031 206.441406 147.078125 206.597656 146.679688 206.597656 L 144.09375 206.597656 C 143.695312 206.597656 143.316406 206.441406 143.035156 206.160156 C 142.753906 205.875 142.59375 205.496094 142.59375 205.097656 L 142.59375 195.398438 C 142.59375 195 142.753906 194.621094 143.035156 194.339844 C 143.316406 194.058594 143.695312 193.898438 144.09375 193.898438 Z M 144.09375 193.898438 " clip-rule="nonzero"/></clipPath><clipPath id="97abe4d4bb"><path d="M 126.945312 193.75 L 132.53125 193.75 L 132.53125 206.46875 L 126.945312 206.46875 Z M 126.945312 193.75 " clip-rule="nonzero"/></clipPath><clipPath id="f9df9c4451"><path d="M 128.445312 193.75 L 131.03125 193.75 C 131.425781 193.75 131.808594 193.910156 132.089844 194.191406 C 132.371094 194.472656 132.53125 194.851562 132.53125 195.25 L 132.53125 204.949219 C 132.53125 205.347656 132.371094 205.730469 132.089844 206.011719 C 131.808594 206.292969 131.425781 206.449219 131.03125 206.449219 L 128.445312 206.449219 C 128.046875 206.449219 127.664062 206.292969 127.382812 206.011719 C 127.101562 205.730469 126.945312 205.347656 126.945312 204.949219 L 126.945312 195.25 C 126.945312 194.851562 127.101562 194.472656 127.382812 194.191406 C 127.664062 193.910156 128.046875 193.75 128.445312 193.75 Z M 128.445312 193.75 " clip-rule="nonzero"/></clipPath></defs><rect x="-37.5" width="450" fill="#ffffff" y="-37.499999" height="449.999989" fill-opacity="1"/><rect x="-37.5" width="450" fill="#ffffff" y="-37.499999" height="449.999989" fill-opacity="1"/><g clip-path="url(#27d3b73700)"><g clip-path="url(#664a9f9039)"><path fill="#004aad" d="M 82.449219 131.570312 L 222.753906 131.570312 L 222.753906 174.125 L 82.449219 174.125 Z M 82.449219 131.570312 " fill-opacity="1" fill-rule="nonzero"/></g></g><path stroke-linecap="butt" transform="matrix(0.45022, 0.599835, -0.599835, 0.45022, 222.90503, 131.491398)" fill="none" stroke-linejoin="miter" d="M 0.000226375 1.502456 L 69.709612 1.498828 " stroke="#004aad" stroke-width="3" stroke-opacity="1" stroke-miterlimit="4"/><g clip-path="url(#5585d98420)"><path fill="#004aad" d="M 250.316406 169.269531 L 256.457031 175.503906 L 250.316406 175.503906 Z M 250.316406 169.269531 " fill-opacity="1" fill-rule="nonzero"/></g><g clip-path="url(#5f37eb9a50)"><g clip-path="url(#6b09df5433)"><path fill="#004aad" d="M 207.902344 163.082031 L 231.765625 163.082031 L 231.765625 169.269531 L 207.902344 169.269531 Z M 207.902344 163.082031 " fill-opacity="1" fill-rule="nonzero"/></g></g><g clip-path="url(#cb12cfc5fb)"><g clip-path="url(#7e4b09ba60)"><path fill="#545454" d="M 191.570312 181.335938 L 249.839844 181.335938 L 249.839844 239.605469 L 191.570312 239.605469 Z M 191.570312 181.335938 " fill-opacity="1" fill-rule="nonzero"/></g></g><g clip-path="url(#6dc74e4a6d)"><path fill="#ffffff" d="M 191.570312 228.949219 L 249.816406 228.949219 L 249.816406 243.511719 L 191.570312 243.511719 Z M 191.570312 228.949219 " fill-opacity="1" fill-rule="nonzero"/></g><g clip-path="url(#dcf16c41bc)"><path fill="#ffffff" d="M 250.957031 200.308594 C 253.984375 200.320312 262.28125 200.175781 263.195312 200.230469 C 273.355469 210.980469 250.597656 215.804688 242.023438 216.949219 C 236.398438 217.902344 222.121094 218.945312 223.058594 226.457031 C 225.21875 237.917969 241.550781 236.582031 252.5625 239.59375 L 192.871094 239.59375 C 190.1875 232.808594 191.027344 224.066406 197.640625 217.546875 C 207.03125 208.300781 235.652344 210.128906 247.597656 206.148438 C 254.683594 203.785156 250.066406 201.027344 250.066406 200.421875 C 250.066406 200.339844 250.398438 200.304688 250.957031 200.308594 Z M 250.957031 200.308594 " fill-opacity="1" fill-rule="nonzero"/></g><path stroke-linecap="butt" transform="matrix(0.45022, 0.599835, -0.599835, 0.45022, 222.113383, 132.085597)" fill="none" stroke-linejoin="miter" d="M 0.00181613 1.49934 L 69.708075 1.499878 " stroke="#004aad" stroke-width="3" stroke-opacity="1" stroke-miterlimit="4"/><g clip-path="url(#091a1491cf)"><g clip-path="url(#34d01c80da)"><path fill="#545454" d="M 253.585938 207.167969 L 292.554688 207.167969 L 292.554688 228.949219 L 253.585938 228.949219 Z M 253.585938 207.167969 " fill-opacity="1" fill-rule="nonzero"/></g></g><g clip-path="url(#58630fa030)"><g clip-path="url(#9b7f78edd7)"><path fill="#ffffff" d="M 257.113281 211.351562 L 262.386719 211.351562 L 262.386719 224.761719 L 257.113281 224.761719 Z M 257.113281 211.351562 " fill-opacity="1" fill-rule="nonzero"/></g></g><g clip-path="url(#13d3cf941b)"><g clip-path="url(#010586db78)"><path fill="#ffffff" d="M 265.820312 211.351562 L 271.09375 211.351562 L 271.09375 224.761719 L 265.820312 224.761719 Z M 265.820312 211.351562 " fill-opacity="1" fill-rule="nonzero"/></g></g><g clip-path="url(#894a319de2)"><g clip-path="url(#ddce435c38)"><path fill="#ffffff" d="M 275.050781 211.351562 L 280.324219 211.351562 L 280.324219 224.761719 L 275.050781 224.761719 Z M 275.050781 211.351562 " fill-opacity="1" fill-rule="nonzero"/></g></g><g clip-path="url(#449d5515a9)"><g clip-path="url(#9634289373)"><path fill="#ffffff" d="M 283.699219 211.351562 L 288.972656 211.351562 L 288.972656 224.761719 L 283.699219 224.761719 Z M 283.699219 211.351562 " fill-opacity="1" fill-rule="nonzero"/></g></g><g clip-path="url(#3a6c4ab821)"><g clip-path="url(#58ca105873)"><path fill="#004aad" d="M 184.238281 228.945312 L 88.902344 228.945312 L 88.902344 179.652344 L 184.238281 179.652344 Z M 184.238281 228.945312 " fill-opacity="1" fill-rule="nonzero"/></g></g><g clip-path="url(#9326ac02f8)"><g clip-path="url(#46f2a1b8b2)"><path fill="#ffffff" d="M 158.246094 193.898438 L 163.828125 193.898438 L 163.828125 206.59375 L 158.246094 206.59375 Z M 158.246094 193.898438 " fill-opacity="1" fill-rule="nonzero"/></g></g><g clip-path="url(#e0117700ad)"><g clip-path="url(#8080fee27d)"><path fill="#ffffff" d="M 142.59375 193.898438 L 148.179688 193.898438 L 148.179688 206.59375 L 142.59375 206.59375 Z M 142.59375 193.898438 " fill-opacity="1" fill-rule="nonzero"/></g></g><g clip-path="url(#97abe4d4bb)"><g clip-path="url(#f9df9c4451)"><path fill="#ffffff" d="M 126.945312 193.75 L 132.53125 193.75 L 132.53125 206.445312 L 126.945312 206.445312 Z M 126.945312 193.75 " fill-opacity="1" fill-rule="nonzero"/></g></g></svg>